exbold.ufo
<glyph name="asterisk.deva" format="1">
  <advance width="990"/>
  <unicode hex="002A"/>
  <outline>
    <contour>
      <point x="632" y="1400" type="line"/>
      <point x="598" y="1084" type="line"/>
      <point x="918" y="1174" type="line"/>
      <point x="951" y="909" type="line"/>
      <point x="669" y="890" type="line"/>
      <point x="855" y="640" type="line"/>
      <point x="621" y="516" type="line"/>
      <point x="492" y="770" type="line"/>
      <point x="382" y="517" type="line"/>
      <point x="137" y="640" type="line"/>
      <point x="322" y="890" type="line"/>
      <point x="40" y="913" type="line"/>
      <point x="81" y="1174" type="line"/>
      <point x="394" y="1084" type="line"/>
      <point x="359" y="1400" type="line"/>
    </contour>
  </outline>
</glyph>
<glyph name="hyphen.deva" format="1">
  <advance width="586"/>
  <unicode hex="002D"/>
  <outline>
    <contour>
      <point x="39" y="354" type="line"/>
      <point x="39" y="634" type="line"/>
      <point x="547" y="634" type="line"/>
      <point x="547" y="354" type="line"/>
    </contour>
  </outline>
</glyph>
<glyph name="colon.deva" format="1">
  <advance width="533"/>
  <unicode hex="003A"/>
  <outline>
    <contour>
      <point x="77" y="149" type="curve" smooth="yes"/>
      <point x="77" y="260"/>
      <point x="144" y="322"/>
      <point x="269" y="322" type="curve" smooth="yes"/>
      <point x="388" y="322"/>
      <point x="454" y="260"/>
      <point x="454" y="149" type="curve" smooth="yes"/>
      <point x="454" y="41"/>
      <point x="384" y="-23"/>
      <point x="269" y="-23" type="curve" smooth="yes"/>
      <point x="150" y="-23"/>
      <point x="77" y="40"/>
    </contour>
    <contour>
      <point x="77" y="860" type="curve" smooth="yes"/>
      <point x="77" y="969"/>
      <point x="145" y="1032"/>
      <point x="269" y="1032" type="curve" smooth="yes"/>
      <point x="388" y="1032"/>
      <point x="454" y="969"/>
      <point x="454" y="860" type="curve" smooth="yes"/>
      <point x="454" y="752"/>
      <point x="385" y="688"/>
      <point x="269" y="688" type="curve" smooth="yes"/>
      <point x="146" y="688"/>
      <point x="77" y="752"/>
    </contour>
  </outline>
</glyph>
<glyph name="F" format="1">
  <advance width="994"/>
  <unicode hex="0046"/>
  <outline>
    <contour>
      <point x="492" y="0" type="line"/>
      <point x="142" y="0" type="line"/>
      <point x="142" y="1316" type="line"/>
      <point x="920" y="1316" type="line"/>
      <point x="920" y="1030" type="line"/>
      <point x="492" y="1030" type="line"/>
      <point x="492" y="779" type="line"/>
      <point x="886" y="779" type="line"/>
      <point x="886" y="494" type="line"/>
      <point x="492" y="494" type="line"/>
    </contour>
  </outline>
</glyph>
<glyph name="g" format="1">
  <advance width="1117"/>
  <unicode hex="0067"/>
  <outline>
    <contour>
      <point x="1084" y="1020" type="line"/>
      <point x="1084" y="850" type="line"/>
      <point x="944" y="798" type="line"/>
      <point x="963" y="763"/>
      <point x="973" y="723"/>
      <point x="973" y="677" type="curve" smooth="yes"/>
      <point x="973" y="457"/>
      <point x="819" y="330"/>
      <point x="512" y="330" type="curve" smooth="yes"/>
      <point x="474" y="330"/>
      <point x="444" y="332"/>
      <point x="422" y="337" type="curve"/>
      <point x="413" y="322"/>
      <point x="409" y="307"/>
      <point x="409" y="293" type="curve" smooth="yes"/>
      <point x="409" y="258"/>
      <point x="471" y="239"/>
      <point x="562" y="239" type="curve" smooth="yes"/>
      <point x="732" y="239" type="line" smooth="yes"/>
      <point x="961" y="239"/>
      <point x="1075" y="143"/>
      <point x="1075" y="-50" type="curve" smooth="yes"/>
      <point x="1075" y="-174"/>
      <point x="1022" y="-270"/>
      <point x="916" y="-339" type="curve" smooth="yes"/>
      <point x="810" y="-408"/>
      <point x="661" y="-443"/>
      <point x="470" y="-443" type="curve" smooth="yes"/>
      <point x="181" y="-443"/>
      <point x="18" y="-343"/>
      <point x="18" y="-162" type="curve" smooth="yes"/>
      <point x="18" y="-40"/>
      <point x="94" y="39"/>
      <point x="245" y="74" type="curve"/>
      <point x="214" y="87"/>
      <point x="186" y="109"/>
      <point x="163" y="138" type="curve" smooth="yes"/>
      <point x="140" y="167"/>
      <point x="129" y="196"/>
      <point x="129" y="225" type="curve" smooth="yes"/>
      <point x="129" y="257"/>
      <point x="138" y="285"/>
      <point x="155" y="309" type="curve" smooth="yes"/>
      <point x="172" y="334"/>
      <point x="209" y="363"/>
      <point x="264" y="396" type="curve"/>
      <point x="157" y="443"/>
      <point x="94" y="544"/>
      <point x="94" y="688" type="curve" smooth="yes"/>
      <point x="94" y="909"/>
      <point x="250" y="1038"/>
      <point x="531" y="1038" type="curve" smooth="yes"/>
      <point x="550" y="1038"/>
      <point x="582" y="1036"/>
      <point x="627" y="1031" type="curve"/>
      <point x="673" y="1027"/>
      <point x="707" y="1023"/>
      <point x="728" y="1020" type="curve"/>
    </contour>
    <contour>
      <point x="315" y="-127" type="curve" smooth="yes"/>
      <point x="315" y="-184"/>
      <point x="383" y="-223"/>
      <point x="487" y="-223" type="curve" smooth="yes"/>
      <point x="572" y="-223"/>
      <point x="641" y="-212"/>
      <point x="692" y="-191" type="curve" smooth="yes"/>
      <point x="743" y="-170"/>
      <point x="769" y="-142"/>
      <point x="769" y="-109" type="curve" smooth="yes"/>
      <point x="769" y="-54"/>
      <point x="704" y="-35"/>
      <point x="588" y="-35" type="curve" smooth="yes"/>
      <point x="450" y="-35" type="line" smooth="yes"/>
      <point x="374" y="-35"/>
      <point x="315" y="-75"/>
    </contour>
    <contour>
      <point x="426" y="686" type="curve" smooth="yes"/>
      <point x="426" y="581"/>
      <point x="462" y="529"/>
      <point x="535" y="529" type="curve" smooth="yes"/>
      <point x="602" y="529"/>
      <point x="640" y="581"/>
      <point x="640" y="684" type="curve" smooth="yes"/>
      <point x="640" y="789"/>
      <point x="605" y="842"/>
      <point x="535" y="842" type="curve" smooth="yes"/>
      <point x="462" y="842"/>
      <point x="426" y="790"/>
    </contour>
  </outline>
</glyph>
<glyph name="k" format="1">
  <advance width="1215"/>
  <unicode hex="006B"/>
  <outline>
    <contour>
      <point x="463" y="573" type="line"/>
      <point x="505" y="641"/>
      <point x="541" y="694"/>
      <point x="571" y="732" type="curve" smooth="yes"/>
      <point x="800" y="1020" type="line"/>
      <point x="1192" y="1020" type="line"/>
      <point x="839" y="586" type="line"/>
      <point x="1215" y="0" type="line"/>
      <point x="813" y="0" type="line"/>
      <point x="589" y="365" type="line"/>
      <point x="475" y="278" type="line"/>
      <point x="475" y="0" type="line"/>
      <point x="121" y="0" type="line"/>
      <point x="121" y="1400" type="line"/>
      <point x="475" y="1400" type="line"/>
      <point x="475" y="850" type="line" smooth="yes"/>
      <point x="475" y="755"/>
      <point x="468" y="663"/>
      <point x="455" y="573" type="curve"/>
    </contour>
  </outline>
</glyph>
<glyph name="n" format="1">
  <advance width="1235"/>
  <unicode hex="006E"/>
  <outline>
    <contour>
      <point x="765" y="0" type="line"/>
      <point x="765" y="556" type="line" smooth="yes"/>
      <point x="765" y="692"/>
      <point x="727" y="761"/>
      <point x="642" y="761" type="curve" smooth="yes"/>
      <point x="583" y="761"/>
      <point x="540" y="737"/>
      <point x="513" y="690" type="curve" smooth="yes"/>
      <point x="486" y="643"/>
      <point x="473" y="561"/>
      <point x="473" y="446" type="curve" smooth="yes"/>
      <point x="473" y="0" type="line"/>
      <point x="121" y="0" type="line"/>
      <point x="121" y="1020" type="line"/>
      <point x="387" y="1020" type="line"/>
      <point x="431" y="894" type="line"/>
      <point x="452" y="894" type="line"/>
      <point x="512" y="990"/>
      <point x="621" y="1038"/>
      <point x="760" y="1038" type="curve" smooth="yes"/>
      <point x="985" y="1038"/>
      <point x="1117" y="900"/>
      <point x="1117" y="663" type="curve" smooth="yes"/>
      <point x="1117" y="0" type="line"/>
    </contour>
  </outline>
</glyph>
<glyph name="r" format="1">
  <advance width="865"/>
  <unicode hex="0072"/>
  <outline>
    <contour>
      <point x="737" y="1038" type="curve" smooth="yes"/>
      <point x="768" y="1038"/>
      <point x="797" y="1035"/>
      <point x="824" y="1030" type="curve" smooth="yes"/>
      <point x="844" y="1027" type="line"/>
      <point x="813" y="695" type="line"/>
      <point x="784" y="702"/>
      <point x="744" y="706"/>
      <point x="693" y="706" type="curve" smooth="yes"/>
      <point x="540" y="706"/>
      <point x="473" y="633"/>
      <point x="473" y="501" type="curve" smooth="yes"/>
      <point x="473" y="0" type="line"/>
      <point x="121" y="0" type="line"/>
      <point x="121" y="1020" type="line"/>
      <point x="383" y="1020" type="line"/>
      <point x="438" y="857" type="line"/>
      <point x="455" y="857" type="line"/>
      <point x="484" y="911"/>
      <point x="525" y="955"/>
      <point x="578" y="988" type="curve" smooth="yes"/>
      <point x="631" y="1021"/>
      <point x="684" y="1038"/>
    </contour>
  </outline>
</glyph>
<glyph name="multiply.deva" format="1">
  <advance width="1043"/>
  <unicode hex="00D7"/>
  <outline>
    <contour>
      <point x="348" y="651" type="line"/>
      <point x="109" y="892" type="line"/>
      <point x="273" y="1062" type="line"/>
      <point x="516" y="822" type="line"/>
      <point x="763" y="1062" type="line"/>
      <point x="932" y="897" type="line"/>
      <point x="686" y="651" type="line"/>
      <point x="929" y="406" type="line"/>
      <point x="763" y="239" type="line"/>
      <point x="516" y="483" type="line"/>
      <point x="273" y="241" type="line"/>
      <point x="111" y="409" type="line"/>
    </contour>
  </outline>
</glyph>
<glyph name="anusvaradeva" format="1">
  <advance width="0"/>
  <unicode hex="0902"/>
  <outline>
    <contour>
      <point x="-333" y="1681" type="curve" smooth="yes"/>
      <point x="-222" y="1685"/>
      <point x="-173" y="1612"/>
      <point x="-170" y="1548" type="curve" smooth="yes"/>
      <point x="-167" y="1484"/>
      <point x="-213" y="1406"/>
      <point x="-324" y="1402" type="curve" smooth="yes"/>
      <point x="-429" y="1398"/>
      <point x="-485" y="1470"/>
      <point x="-488" y="1537" type="curve" smooth="yes"/>
      <point x="-491" y="1602"/>
      <point x="-440" y="1678"/>
    </contour>
    <contour>
      <point x="49" y="8" type="move" name="x12"/>
    </contour>
    <contour>
      <point x="-424" y="1282" type="move" name="_mark0"/>
    </contour>
  </outline>
</glyph>
<glyph name="adeva" format="1">
  <advance width="1688"/>
  <unicode hex="0905"/>
  <outline>
    <contour>
      <point x="335" y="564" type="line"/>
      <point x="274" y="821" type="line"/>
      <point x="287" y="822" type="line"/>
      <point x="567" y="842"/>
      <point x="620" y="893"/>
      <point x="620" y="971" type="curve" smooth="yes"/>
      <point x="620" y="1016"/>
      <point x="587" y="1049"/>
      <point x="508" y="1049" type="curve" smooth="yes"/>
      <point x="422" y="1049"/>
      <point x="335" y="1022"/>
      <point x="214" y="962" type="curve"/>
      <point x="137" y="1223" type="line"/>
      <point x="261" y="1277"/>
      <point x="377" y="1302"/>
      <point x="521" y="1302" type="curve" smooth="yes"/>
      <point x="799" y="1302"/>
      <point x="932" y="1143"/>
      <point x="932" y="939" type="curve" smooth="yes"/>
      <point x="932" y="716"/>
      <point x="732" y="593"/>
      <point x="360" y="566" type="curve" smooth="yes"/>
    </contour>
    <contour>
      <point x="722" y="772" type="line"/>
      <point x="861" y="718"/>
      <point x="986" y="587"/>
      <point x="986" y="419" type="curve" smooth="yes"/>
      <point x="986" y="229"/>
      <point x="840" y="77"/>
      <point x="588" y="77" type="curve" smooth="yes"/>
      <point x="425" y="77"/>
      <point x="288" y="122"/>
      <point x="94" y="231" type="curve"/>
      <point x="159" y="482" type="line"/>
      <point x="312" y="381"/>
      <point x="392" y="353"/>
      <point x="493" y="353" type="curve" smooth="yes"/>
      <point x="601" y="353"/>
      <point x="666" y="408"/>
      <point x="666" y="489" type="curve" smooth="yes"/>
      <point x="666" y="551"/>
      <point x="616" y="614"/>
      <point x="541" y="637" type="curve"/>
    </contour>
    <contour>
      <point x="753" y="681" type="line"/>
      <point x="788" y="657"/>
      <point x="943" y="645"/>
      <point x="989" y="645" type="curve" smooth="yes"/>
      <point x="1061" y="645"/>
      <point x="1159" y="676"/>
      <point x="1224" y="737" type="curve"/>
      <point x="1224" y="417" type="line"/>
      <point x="1194" y="409"/>
      <point x="1125" y="398"/>
      <point x="1089" y="398" type="curve" smooth="yes"/>
      <point x="1035" y="398"/>
      <point x="850" y="412"/>
      <point x="808" y="438" type="curve"/>
    </contour>
    <contour>
      <point x="1179" y="1104" type="line"/>
      <point x="1528" y="1104" type="line"/>
      <point x="1528" y="0" type="line"/>
      <point x="1179" y="0" type="line"/>
    </contour>
    <contour>
      <point x="1741" y="1065" type="line"/>
      <point x="1013" y="1065" type="line"/>
      <point x="1013" y="1293" type="line"/>
      <point x="1741" y="1293" type="line"/>
    </contour>
  </outline>
</glyph>
<glyph name="ideva" format="1">
  <advance width="1071"/>
  <unicode hex="0907"/>
  <outline>
    <contour>
      <point x="540" y="155" type="curve" smooth="yes"/>
      <point x="853" y="-176" type="line"/>
      <point x="624" y="-291" type="line"/>
      <point x="292" y="72" type="line"/>
      <point x="430" y="-4" type="line"/>
      <point x="165" y="-6"/>
      <point x="68" y="89"/>
      <point x="68" y="181" type="curve" smooth="yes"/>
      <point x="68" y="262"/>
      <point x="134" y="325"/>
      <point x="235" y="325" type="curve" smooth="yes"/>
      <point x="324" y="325"/>
      <point x="421" y="281"/>
    </contour>
    <contour>
      <point x="569" y="1086" type="line"/>
      <point x="898" y="1086" type="line"/>
      <point x="898" y="723" type="line"/>
      <point x="462" y="723" type="line"/>
      <point x="383" y="723"/>
      <point x="354" y="689"/>
      <point x="354" y="652" type="curve" smooth="yes"/>
      <point x="354" y="616"/>
      <point x="381" y="593"/>
      <point x="453" y="558" type="curve"/>
      <point x="350" y="575" type="line"/>
      <point x="459" y="620"/>
      <point x="512" y="641"/>
      <point x="657" y="641" type="curve" smooth="yes"/>
      <point x="873" y="641"/>
      <point x="1007" y="510"/>
      <point x="1007" y="340" type="curve" smooth="yes"/>
      <point x="1007" y="177"/>
      <point x="823" y="-3"/>
      <point x="493" y="-3" type="curve"/>
      <point x="443" y="237" type="line"/>
      <point x="581" y="237"/>
      <point x="670" y="279"/>
      <point x="670" y="333" type="curve" smooth="yes"/>
      <point x="670" y="368"/>
      <point x="639" y="387"/>
      <point x="606" y="387" type="curve" smooth="yes"/>
      <point x="546" y="387"/>
      <point x="484" y="368"/>
      <point x="406" y="337" type="curve"/>
      <point x="381" y="336" type="line"/>
      <point x="134" y="440"/>
      <point x="36" y="570"/>
      <point x="36" y="712" type="curve" smooth="yes"/>
      <point x="36" y="833"/>
      <point x="128" y="946"/>
      <point x="372" y="946" type="curve" smooth="yes"/>
      <point x="636" y="946" type="line"/>
      <point x="569" y="880" type="line"/>
    </contour>
    <contour>
      <point x="1115" y="1065" type="line"/>
      <point x="-23" y="1065" type="line"/>
      <point x="-23" y="1293" type="line"/>
      <point x="1115" y="1293" type="line"/>
    </contour>
    <contour>
      <point x="585" y="1282" type="move" name="mark0"/>
    </contour>
    <contour>
      <point x="-60" y="8" type="move" name="x51"/>
    </contour>
  </outline>
</glyph>
<glyph name="lvocalicdeva" format="1">
  <advance width="1578"/>
  <unicode hex="090C"/>
  <outline>
    <contour>
      <point x="0" y="0" type="line"/>
      <point x="1578" y="0" type="line"/>
      <point x="1578" y="20" type="line"/>
      <point x="0" y="20" type="line"/>
    </contour>
  </outline>
</glyph>
<glyph name="kadeva" format="1">
  <advance width="1588"/>
  <unicode hex="0915"/>
  <outline>
    <contour>
      <point x="918" y="356" type="curve"/>
      <point x="910" y="827" type="line"/>
      <point x="970" y="836"/>
      <point x="1019" y="845"/>
      <point x="1099" y="845" type="curve" smooth="yes"/>
      <point x="1380" y="845"/>
      <point x="1570" y="666"/>
      <point x="1570" y="452" type="curve" smooth="yes"/>
      <point x="1570" y="331"/>
      <point x="1527" y="216"/>
      <point x="1457" y="119" type="curve"/>
      <point x="1172" y="222" type="line"/>
      <point x="1238" y="318"/>
      <point x="1269" y="400"/>
      <point x="1269" y="478" type="curve" smooth="yes"/>
      <point x="1269" y="536"/>
      <point x="1226" y="569"/>
      <point x="1162" y="569" type="curve" smooth="yes"/>
      <point x="1088" y="569"/>
      <point x="999" y="488"/>
    </contour>
    <contour>
      <point x="-50" y="1065" type="line"/>
      <point x="-50" y="1293" type="line"/>
      <point x="1673" y="1293" type="line"/>
      <point x="1673" y="1065" type="line"/>
    </contour>
    <contour>
      <point x="692" y="638" type="curve"/>
      <point x="692" y="254" type="line"/>
      <point x="619" y="211"/>
      <point x="563" y="194"/>
      <point x="462" y="194" type="curve" smooth="yes"/>
      <point x="196" y="194"/>
      <point x="26" y="385"/>
      <point x="26" y="617" type="curve" smooth="yes"/>
      <point x="26" y="800"/>
      <point x="168" y="925"/>
      <point x="381" y="925" type="curve" smooth="yes"/>
      <point x="524" y="925"/>
      <point x="603" y="904"/>
      <point x="711" y="854" type="curve"/>
      <point x="711" y="618" type="line"/>
      <point x="624" y="662"/>
      <point x="567" y="678"/>
      <point x="487" y="678" type="curve" smooth="yes"/>
      <point x="382" y="678"/>
      <point x="328" y="623"/>
      <point x="328" y="554" type="curve" smooth="yes"/>
      <point x="328" y="495"/>
      <point x="372" y="463"/>
      <point x="439" y="464" type="curve" smooth="yes"/>
      <point x="531" y="465"/>
      <point x="627" y="527"/>
    </contour>
    <contour>
      <point x="668" y="1104" type="line"/>
      <point x="1016" y="1104" type="line"/>
      <point x="1016" y="0" type="line"/>
      <point x="668" y="0" type="line"/>
    </contour>
    <contour>
      <point x="-129" y="8" type="move" name="x47"/>
    </contour>
    <contour>
      <point x="712" y="8" type="move" name="x46"/>
    </contour>
    <contour>
      <point x="712" y="8" type="move" name="mark0"/>
    </contour>
  </outline>
</glyph>
<glyph name="khadeva" format="1">
  <advance width="1778"/>
  <unicode hex="0916"/>
  <outline>
    <contour>
      <point x="1311" y="685" type="curve"/>
      <point x="1311" y="344" type="line"/>
      <point x="1241" y="313"/>
      <point x="1193" y="296"/>
      <point x="1106" y="296" type="curve" smooth="yes"/>
      <point x="891" y="296"/>
      <point x="688" y="449"/>
      <point x="688" y="658" type="curve" smooth="yes"/>
      <point x="688" y="823"/>
      <point x="799" y="955"/>
      <point x="1026" y="955" type="curve" smooth="yes"/>
      <point x="1152" y="955"/>
      <point x="1231" y="920"/>
      <point x="1313" y="882" type="curve"/>
      <point x="1313" y="656" type="line"/>
      <point x="1245" y="700"/>
      <point x="1183" y="724"/>
      <point x="1107" y="724" type="curve" smooth="yes"/>
      <point x="1014" y="724"/>
      <point x="967" y="670"/>
      <point x="967" y="614" type="curve" smooth="yes"/>
      <point x="967" y="566"/>
      <point x="1002" y="532"/>
      <point x="1058" y="532" type="curve" smooth="yes"/>
      <point x="1162" y="532"/>
      <point x="1245" y="577"/>
    </contour>
    <contour>
      <point x="229" y="723" type="line"/>
      <point x="364" y="763"/>
      <point x="397" y="836"/>
      <point x="397" y="950" type="curve" smooth="yes"/>
      <point x="397" y="1151" type="line"/>
      <point x="745" y="1151" type="line"/>
      <point x="745" y="933" type="line"/>
      <point x="745" y="723"/>
      <point x="693" y="539"/>
      <point x="434" y="415" type="curve"/>
    </contour>
    <contour>
      <point x="-59" y="1065" type="line"/>
      <point x="-59" y="1293" type="line"/>
      <point x="1832" y="1293" type="line"/>
      <point x="1832" y="1065" type="line"/>
    </contour>
    <contour>
      <point x="359" y="642" type="line"/>
      <point x="530" y="317"/>
      <point x="759" y="189"/>
      <point x="1033" y="189" type="curve" smooth="yes"/>
      <point x="1220" y="189"/>
      <point x="1293" y="224"/>
      <point x="1452" y="330" type="curve"/>
      <point x="1554" y="100" type="line"/>
      <point x="1389" y="27"/>
      <point x="1212" y="-25"/>
      <point x="993" y="-25" type="curve" smooth="yes"/>
      <point x="730" y="-25"/>
      <point x="495" y="46"/>
      <point x="278" y="262" type="curve" smooth="yes"/>
      <point x="109" y="431"/>
      <point x="6" y="610"/>
      <point x="6" y="708" type="curve" smooth="yes"/>
      <point x="6" y="790"/>
      <point x="67" y="851"/>
      <point x="159" y="851" type="curve" smooth="yes"/>
      <point x="236" y="851"/>
      <point x="284" y="813"/>
      <point x="356" y="727" type="curve" smooth="yes"/>
      <point x="400" y="673" type="line"/>
    </contour>
    <contour>
      <point x="1269" y="1104" type="line"/>
      <point x="1618" y="1104" type="line"/>
      <point x="1618" y="0" type="line"/>
      <point x="1269" y="0" type="line"/>
    </contour>
  </outline>
</glyph>
<glyph name="gadeva" format="1">
  <advance width="1421"/>
  <unicode hex="0917"/>
  <outline>
    <contour>
      <point x="632" y="1096" type="line"/>
      <point x="632" y="414" type="line"/>
      <point x="632" y="312"/>
      <point x="608" y="254"/>
      <point x="516" y="254" type="curve" smooth="yes"/>
      <point x="340" y="254"/>
      <point x="59" y="441"/>
      <point x="57" y="588" type="curve" smooth="yes"/>
      <point x="55" y="662"/>
      <point x="97" y="713"/>
      <point x="195" y="713" type="curve" smooth="yes"/>
      <point x="330" y="713" type="line"/>
      <point x="285" y="671" type="line"/>
      <point x="285" y="1096" type="line"/>
    </contour>
    <contour>
      <point x="913" y="1104" type="line"/>
      <point x="1261" y="1104" type="line"/>
      <point x="1261" y="0" type="line"/>
      <point x="913" y="0" type="line"/>
    </contour>
    <contour>
      <point x="1474" y="1065" type="line"/>
      <point x="-48" y="1065" type="line"/>
      <point x="-48" y="1293" type="line"/>
      <point x="1474" y="1293" type="line"/>
    </contour>
  </outline>
</glyph>
<glyph name="ngadeva" format="1">
  <advance width="1461"/>
  <unicode hex="0919"/>
  <outline>
    <contour>
      <point x="1145" y="1036" type="curve"/>
      <point x="1145" y="1040"/>
      <point x="1146" y="1265"/>
      <point x="1149" y="1265" type="curve"/>
      <point x="1152" y="1265"/>
      <point x="1521" y="1263"/>
      <point x="1521" y="1259" type="curve"/>
      <point x="1521" y="1255"/>
      <point x="1520" y="1030"/>
      <point x="1516" y="1030" type="curve"/>
      <point x="1513" y="1030"/>
      <point x="1145" y="1032"/>
    </contour>
    <contour>
      <point x="1242" y="837" type="curve" smooth="yes"/>
      <point x="1372" y="837"/>
      <point x="1413" y="763"/>
      <point x="1413" y="703" type="curve" smooth="yes"/>
      <point x="1413" y="643"/>
      <point x="1378" y="564"/>
      <point x="1257" y="564" type="curve" smooth="yes"/>
      <point x="1127" y="564"/>
      <point x="1083" y="639"/>
      <point x="1083" y="698" type="curve" smooth="yes"/>
      <point x="1083" y="757"/>
      <point x="1116" y="837"/>
    </contour>
    <component base="ddadeva"/>
    <contour>
      <point x="20" y="8" type="move" name="x56"/>
    </contour>
    <contour>
      <point x="1709" y="8" type="move" name="x57"/>
    </contour>
    <contour>
      <point x="825" y="8" type="move" name="mark0"/>
    </contour>
  </outline>
</glyph>
<glyph name="cadeva" format="1">
  <advance width="1377"/>
  <unicode hex="091A"/>
  <outline>
    <contour>
      <point x="7" y="661" type="line"/>
      <point x="7" y="923" type="line"/>
      <point x="746" y="923" type="line"/>
      <point x="746" y="661" type="line"/>
    </contour>
    <contour>
      <point x="913" y="672" type="curve"/>
      <point x="913" y="202" type="line"/>
      <point x="838" y="174"/>
      <point x="774" y="160"/>
      <point x="676" y="160" type="curve" smooth="yes"/>
      <point x="358" y="160"/>
      <point x="197" y="343"/>
      <point x="197" y="560" type="curve" smooth="yes"/>
      <point x="197" y="777"/>
      <point x="331" y="911"/>
      <point x="654" y="911" type="curve"/>
      <point x="685" y="663" type="line"/>
      <point x="572" y="665"/>
      <point x="527" y="584"/>
      <point x="527" y="523" type="curve" smooth="yes"/>
      <point x="527" y="468"/>
      <point x="571" y="430"/>
      <point x="628" y="430" type="curve" smooth="yes"/>
      <point x="729" y="430"/>
      <point x="868" y="500"/>
    </contour>
    <contour>
      <point x="-21" y="1065" type="line"/>
      <point x="-21" y="1293" type="line"/>
      <point x="1431" y="1293" type="line"/>
      <point x="1431" y="1065" type="line"/>
    </contour>
    <contour>
      <point x="868" y="1104" type="line"/>
      <point x="1217" y="1104" type="line"/>
      <point x="1217" y="0" type="line"/>
      <point x="868" y="0" type="line"/>
    </contour>
  </outline>
</glyph>
<glyph name="jhadeva" format="1">
  <advance width="1657"/>
  <unicode hex="091D"/>
  <outline>
    <contour>
      <point x="1195" y="292" type="line"/>
      <point x="1170" y="286"/>
      <point x="1110" y="280"/>
      <point x="1066" y="280" type="curve" smooth="yes"/>
      <point x="983" y="283"/>
      <point x="885" y="295"/>
      <point x="847" y="302" type="curve"/>
      <point x="847" y="372"/>
      <point x="839" y="438"/>
      <point x="839" y="555" type="curve"/>
      <point x="873" y="541"/>
      <point x="914" y="533"/>
      <point x="959" y="533" type="curve" smooth="yes"/>
      <point x="1032" y="533"/>
      <point x="1129" y="565"/>
      <point x="1195" y="627" type="curve"/>
    </contour>
    <contour>
      <point x="1148" y="1104" type="line"/>
      <point x="1497" y="1104" type="line"/>
      <point x="1497" y="0" type="line"/>
      <point x="1148" y="0" type="line"/>
    </contour>
    <contour>
      <point x="1710" y="1065" type="line"/>
      <point x="982" y="1065" type="line"/>
      <point x="982" y="1293" type="line"/>
      <point x="1710" y="1293" type="line"/>
    </contour>
    <component base="ideva"/>
  </outline>
</glyph>
<glyph name="ttadeva" format="1">
  <advance width="1132"/>
  <unicode hex="091F"/>
  <outline>
    <contour>
      <point x="619" y="1102" type="line"/>
      <point x="949" y="1102" type="line"/>
      <point x="949" y="657" type="line"/>
      <point x="683" y="657" type="line"/>
      <point x="488" y="657"/>
      <point x="409" y="565"/>
      <point x="409" y="471" type="curve" smooth="yes"/>
      <point x="409" y="370"/>
      <point x="502" y="294"/>
      <point x="619" y="294" type="curve" smooth="yes"/>
      <point x="738" y="294"/>
      <point x="837" y="315"/>
      <point x="1004" y="379" type="curve"/>
      <point x="1067" y="96" type="line"/>
      <point x="903" y="51"/>
      <point x="813" y="36"/>
      <point x="666" y="36" type="curve" smooth="yes"/>
      <point x="307" y="36"/>
      <point x="54" y="264"/>
      <point x="54" y="519" type="curve" smooth="yes"/>
      <point x="54" y="728"/>
      <point x="204" y="894"/>
      <point x="556" y="894" type="curve" smooth="yes"/>
      <point x="659" y="894" type="line"/>
      <point x="619" y="854" type="line"/>
    </contour>
    <contour>
      <point x="1162" y="1065" type="line"/>
      <point x="-72" y="1065" type="line"/>
      <point x="-72" y="1293" type="line"/>
      <point x="1162" y="1293" type="line"/>
    </contour>
    <contour>
      <point x="542" y="8" type="move" name="mark0"/>
    </contour>
    <contour>
      <point x="1117" y="8" type="move" name="x29"/>
    </contour>
    <contour>
      <point x="-75" y="8" type="move" name="x28"/>
    </contour>
  </outline>
</glyph>
<glyph name="ddhadeva" format="1">
  <advance width="1185"/>
  <unicode hex="0922"/>
  <outline>
    <contour>
      <point x="1197" y="1065" type="line"/>
      <point x="-82" y="1065" type="line"/>
      <point x="-82" y="1293" type="line"/>
      <point x="1197" y="1293" type="line"/>
    </contour>
    <contour>
      <point x="640" y="1095" type="line"/>
      <point x="970" y="1095" type="line"/>
      <point x="970" y="666" type="line"/>
      <point x="655" y="666" type="line"/>
      <point x="438" y="666"/>
      <point x="345" y="578"/>
      <point x="345" y="434" type="curve" smooth="yes"/>
      <point x="345" y="305"/>
      <point x="475" y="198"/>
      <point x="689" y="198" type="curve" smooth="yes"/>
      <point x="828" y="198"/>
      <point x="906" y="255"/>
      <point x="906" y="319" type="curve" smooth="yes"/>
      <point x="906" y="362"/>
      <point x="872" y="382"/>
      <point x="832" y="382" type="curve" smooth="yes"/>
      <point x="754" y="382"/>
      <point x="704" y="323"/>
      <point x="704" y="249" type="curve" smooth="yes"/>
      <point x="704" y="204"/>
      <point x="713" y="163"/>
      <point x="727" y="124" type="curve"/>
      <point x="476" y="96" type="line"/>
      <point x="434" y="161"/>
      <point x="419" y="210"/>
      <point x="419" y="282" type="curve" smooth="yes"/>
      <point x="419" y="445"/>
      <point x="555" y="580"/>
      <point x="811" y="580" type="curve" smooth="yes"/>
      <point x="1049" y="580"/>
      <point x="1183" y="474"/>
      <point x="1183" y="307" type="curve" smooth="yes"/>
      <point x="1183" y="161"/>
      <point x="1043" y="9"/>
      <point x="694" y="9" type="curve" smooth="yes"/>
      <point x="258" y="9"/>
      <point x="7" y="266"/>
      <point x="7" y="501" type="curve" smooth="yes"/>
      <point x="7" y="718"/>
      <point x="144" y="894"/>
      <point x="530" y="894" type="curve" smooth="yes"/>
      <point x="681" y="894" type="line"/>
      <point x="640" y="860" type="line"/>
    </contour>
    <contour>
      <point x="548" y="8" type="move" name="mark0"/>
    </contour>
    <contour>
      <point x="1196" y="8" type="move" name="x44"/>
    </contour>
    <contour>
      <point x="-132" y="8" type="move" name="x43"/>
    </contour>
  </outline>
</glyph>
<glyph name="nnadeva" format="1">
  <advance width="1771"/>
  <unicode hex="0923"/>
  <outline>
    <contour>
      <point x="701" y="1086" type="line"/>
      <point x="1050" y="1086" type="line"/>
      <point x="1050" y="688" type="line"/>
      <point x="1050" y="416"/>
      <point x="919" y="246"/>
      <point x="603" y="246" type="curve" smooth="yes"/>
      <point x="280" y="246"/>
      <point x="102" y="438"/>
      <point x="102" y="700" type="curve" smooth="yes"/>
      <point x="102" y="1086" type="line"/>
      <point x="451" y="1086" type="line"/>
      <point x="451" y="652" type="line"/>
      <point x="451" y="563"/>
      <point x="494" y="515"/>
      <point x="563" y="515" type="curve" smooth="yes"/>
      <point x="651" y="515"/>
      <point x="701" y="587"/>
      <point x="701" y="703" type="curve" smooth="yes"/>
    </contour>
    <contour>
      <point x="-80" y="1065" type="line"/>
      <point x="-80" y="1293" type="line"/>
      <point x="1823" y="1293" type="line"/>
      <point x="1823" y="1065" type="line"/>
    </contour>
    <contour>
      <point x="1262" y="1104" type="line"/>
      <point x="1611" y="1104" type="line"/>
      <point x="1611" y="0" type="line"/>
      <point x="1262" y="0" type="line"/>
    </contour>
  </outline>
</glyph>
<glyph name="dadeva" format="1">
  <advance width="1159"/>
  <unicode hex="0926"/>
  <outline>
    <contour>
      <point x="-36" y="1065" type="line"/>
      <point x="-36" y="1293" type="line"/>
      <point x="1178" y="1293" type="line"/>
      <point x="1178" y="1065" type="line"/>
    </contour>
    <contour>
      <point x="671" y="160" type="line"/>
      <point x="926" y="236" type="line"/>
      <point x="1132" y="-147" type="line"/>
      <point x="880" y="-227" type="line"/>
    </contour>
    <contour>
      <point x="640" y="48" type="curve" smooth="yes"/>
      <point x="299" y="48"/>
      <point x="39" y="248"/>
      <point x="39" y="507" type="curve" smooth="yes"/>
      <point x="39" y="733"/>
      <point x="201" y="893"/>
      <point x="540" y="893" type="curve" smooth="yes"/>
      <point x="692" y="893" type="line"/>
      <point x="642" y="838" type="line"/>
      <point x="642" y="1096" type="line"/>
      <point x="972" y="1096" type="line"/>
      <point x="972" y="642" type="line"/>
      <point x="680" y="642" type="line"/>
      <point x="472" y="642"/>
      <point x="393" y="559"/>
      <point x="393" y="450" type="curve" smooth="yes"/>
      <point x="393" y="339"/>
      <point x="481" y="271"/>
      <point x="600" y="271" type="curve" smooth="yes"/>
      <point x="645" y="271"/>
      <point x="699" y="279"/>
      <point x="774" y="301" type="curve"/>
      <point x="655" y="198" type="line"/>
      <point x="619" y="253"/>
      <point x="601" y="314"/>
      <point x="601" y="360" type="curve" smooth="yes"/>
      <point x="601" y="426"/>
      <point x="652" y="503"/>
      <point x="787" y="503" type="curve" smooth="yes"/>
      <point x="974" y="503"/>
      <point x="1113" y="402"/>
      <point x="1113" y="296" type="curve" smooth="yes"/>
      <point x="1113" y="189"/>
      <point x="944" y="48"/>
    </contour>
    <contour>
      <point x="803" y="8" type="move" name="mark0"/>
    </contour>
    <contour>
      <point x="1143" y="8" type="move" name="x43"/>
    </contour>
    <contour>
      <point x="-88" y="8" type="move" name="x42"/>
    </contour>
  </outline>
</glyph>
<glyph name="nadeva" format="1">
  <advance width="1260"/>
  <unicode hex="0928"/>
  <outline>
    <contour>
      <point x="788" y="858" type="line"/>
      <point x="788" y="575" type="line"/>
      <point x="410" y="575" type="line"/>
      <point x="460" y="626" type="line"/>
      <point x="460" y="390" type="line"/>
      <point x="460" y="301"/>
      <point x="419" y="248"/>
      <point x="337" y="248" type="curve" smooth="yes"/>
      <point x="216" y="248"/>
      <point x="32" y="483"/>
      <point x="32" y="685" type="curve" smooth="yes"/>
      <point x="32" y="797"/>
      <point x="88" y="858"/>
      <point x="223" y="858" type="curve" smooth="yes"/>
    </contour>
    <contour>
      <point x="-55" y="1065" type="line"/>
      <point x="-55" y="1293" type="line"/>
      <point x="1312" y="1293" type="line"/>
      <point x="1312" y="1065" type="line"/>
    </contour>
    <contour>
      <point x="751" y="1104" type="line"/>
      <point x="1100" y="1104" type="line"/>
      <point x="1100" y="0" type="line"/>
      <point x="751" y="0" type="line"/>
    </contour>
  </outline>
</glyph>
<glyph name="phadeva" format="1">
  <advance width="1681"/>
  <unicode hex="092B"/>
  <outline>
    <contour>
      <point x="446" y="1171" type="line"/>
      <point x="446" y="708" type="line"/>
      <point x="446" y="619"/>
      <point x="484" y="570"/>
      <point x="558" y="570" type="curve" smooth="yes"/>
      <point x="635" y="570"/>
      <point x="693" y="603"/>
      <point x="766" y="670" type="curve"/>
      <point x="766" y="324" type="line"/>
      <point x="718" y="310"/>
      <point x="667" y="304"/>
      <point x="606" y="304" type="curve" smooth="yes"/>
      <point x="297" y="304"/>
      <point x="97" y="495"/>
      <point x="97" y="787" type="curve" smooth="yes"/>
      <point x="97" y="1171" type="line"/>
    </contour>
    <contour>
      <point x="1018" y="400" type="curve"/>
      <point x="1008" y="821" type="line"/>
      <point x="1076" y="829"/>
      <point x="1132" y="835"/>
      <point x="1226" y="835" type="curve" smooth="yes"/>
      <point x="1516" y="835"/>
      <point x="1680" y="646"/>
      <point x="1680" y="425" type="curve" smooth="yes"/>
      <point x="1680" y="296"/>
      <point x="1626" y="156"/>
      <point x="1540" y="62" type="curve"/>
      <point x="1264" y="168" type="line"/>
      <point x="1339" y="275"/>
      <point x="1384" y="367"/>
      <point x="1384" y="468" type="curve" smooth="yes"/>
      <point x="1384" y="524"/>
      <point x="1347" y="554"/>
      <point x="1282" y="554" type="curve" smooth="yes"/>
      <point x="1203" y="554"/>
      <point x="1099" y="504"/>
    </contour>
    <contour>
      <point x="-48" y="1065" type="line"/>
      <point x="-48" y="1293" type="line"/>
      <point x="1710" y="1293" type="line"/>
      <point x="1710" y="1065" type="line"/>
    </contour>
    <contour>
      <point x="726" y="1104" type="line"/>
      <point x="1074" y="1104" type="line"/>
      <point x="1074" y="0" type="line"/>
      <point x="726" y="0" type="line"/>
    </contour>
    <contour>
      <point x="824" y="8" type="move" name="x2"/>
    </contour>
    <contour>
      <point x="824" y="8" type="move" name="mark0"/>
    </contour>
    <contour>
      <point x="-14" y="8" type="move" name="x43"/>
    </contour>
  </outline>
</glyph>
<glyph name="vadeva" format="1">
  <advance width="1217"/>
  <unicode hex="0935"/>
  <outline>
    <contour>
      <point x="1270" y="1065" type="line"/>
      <point x="-18" y="1065" type="line"/>
      <point x="-18" y="1293" type="line"/>
      <point x="1270" y="1293" type="line"/>
    </contour>
    <contour>
      <point x="747" y="588" type="curve"/>
      <point x="747" y="223" type="line"/>
      <point x="680" y="184"/>
      <point x="594" y="168"/>
      <point x="500" y="168" type="curve" smooth="yes"/>
      <point x="213" y="168"/>
      <point x="11" y="392"/>
      <point x="11" y="616" type="curve" smooth="yes"/>
      <point x="11" y="802"/>
      <point x="168" y="951"/>
      <point x="396" y="951" type="curve" smooth="yes"/>
      <point x="581" y="951"/>
      <point x="685" y="919"/>
      <point x="803" y="850" type="curve"/>
      <point x="801" y="594" type="line"/>
      <point x="685" y="675"/>
      <point x="608" y="700"/>
      <point x="494" y="700" type="curve" smooth="yes"/>
      <point x="393" y="700"/>
      <point x="330" y="630"/>
      <point x="330" y="554" type="curve" smooth="yes"/>
      <point x="330" y="481"/>
      <point x="384" y="433"/>
      <point x="458" y="433" type="curve" smooth="yes"/>
      <point x="560" y="433"/>
      <point x="653" y="481"/>
    </contour>
    <contour>
      <point x="708" y="1104" type="line"/>
      <point x="1057" y="1104" type="line"/>
      <point x="1057" y="0" type="line"/>
      <point x="708" y="0" type="line"/>
    </contour>
  </outline>
</glyph>
<glyph name="ssadeva" format="1">
  <advance width="1251"/>
  <unicode hex="0937"/>
  <outline>
    <contour>
      <point x="854" y="605" type="line"/>
      <point x="729" y="513" type="line"/>
      <point x="282" y="1054" type="line"/>
      <point x="407" y="1146" type="line"/>
    </contour>
    <component base="padeva"/>
  </outline>
</glyph>
<glyph name="sadeva" format="1">
  <advance width="1532"/>
  <unicode hex="0938"/>
  <outline>
    <contour>
      <point x="784" y="95" type="line"/>
      <point x="539" y="-60" type="line"/>
      <point x="97" y="517" type="line"/>
      <point x="14" y="626"/>
      <point x="-16" y="677"/>
      <point x="-16" y="740" type="curve" smooth="yes"/>
      <point x="-16" y="814"/>
      <point x="50" y="878"/>
      <point x="129" y="878" type="curve" smooth="yes"/>
      <point x="205" y="878"/>
      <point x="255" y="844"/>
      <point x="339" y="730" type="curve" smooth="yes"/>
      <point x="385" y="667" type="line"/>
      <point x="369" y="645" type="line"/>
    </contour>
    <contour>
      <point x="215" y="718" type="line"/>
      <point x="343" y="762"/>
      <point x="391" y="823"/>
      <point x="391" y="955" type="curve" smooth="yes"/>
      <point x="391" y="1123" type="line"/>
      <point x="740" y="1123" type="line"/>
      <point x="740" y="901" type="line"/>
      <point x="740" y="710"/>
      <point x="621" y="552"/>
      <point x="400" y="449" type="curve"/>
    </contour>
    <contour>
      <point x="-41" y="1065" type="line"/>
      <point x="-41" y="1293" type="line"/>
      <point x="1586" y="1293" type="line"/>
      <point x="1586" y="1065" type="line"/>
    </contour>
    <contour>
      <point x="470" y="508" type="curve"/>
      <point x="604" y="740" type="line"/>
      <point x="672" y="717"/>
      <point x="754" y="705"/>
      <point x="813" y="705" type="curve" smooth="yes"/>
      <point x="898" y="705"/>
      <point x="962" y="709"/>
      <point x="1050" y="731" type="curve"/>
      <point x="1050" y="437" type="line"/>
      <point x="989" y="426"/>
      <point x="935" y="421"/>
      <point x="858" y="421" type="curve" smooth="yes"/>
      <point x="754" y="421"/>
      <point x="605" y="453"/>
    </contour>
    <contour>
      <point x="1023" y="1104" type="line"/>
      <point x="1372" y="1104" type="line"/>
      <point x="1372" y="0" type="line"/>
      <point x="1023" y="0" type="line"/>
    </contour>
  </outline>
</glyph>
<glyph name="hadeva" format="1">
  <advance width="1134"/>
  <unicode hex="0939"/>
  <outline>
    <contour>
      <point x="624" y="586" type="curve" smooth="yes"/>
      <point x="936" y="586"/>
      <point x="1082" y="422"/>
      <point x="1082" y="248" type="curve" smooth="yes"/>
      <point x="1082" y="175"/>
      <point x="1065" y="107"/>
      <point x="1031" y="43" type="curve"/>
      <point x="753" y="100" type="line"/>
      <point x="769" y="138"/>
      <point x="783" y="179"/>
      <point x="783" y="231" type="curve" smooth="yes"/>
      <point x="783" y="282"/>
      <point x="744" y="332"/>
      <point x="652" y="332" type="curve" smooth="yes"/>
      <point x="540" y="332"/>
      <point x="465" y="244"/>
      <point x="465" y="159" type="curve" smooth="yes"/>
      <point x="465" y="51"/>
      <point x="557" y="-58"/>
      <point x="963" y="-116" type="curve"/>
      <point x="856" y="-343" type="line"/>
      <point x="360" y="-258"/>
      <point x="125" y="-64"/>
      <point x="125" y="182" type="curve" smooth="yes"/>
      <point x="125" y="384"/>
      <point x="314" y="586"/>
    </contour>
    <contour>
      <point x="1178" y="1065" type="line"/>
      <point x="-34" y="1065" type="line"/>
      <point x="-34" y="1293" type="line"/>
      <point x="1178" y="1293" type="line"/>
    </contour>
    <contour>
      <point x="629" y="1075" type="line"/>
      <point x="977" y="1075" type="line"/>
      <point x="977" y="708" type="line"/>
      <point x="518" y="708" type="line"/>
      <point x="420" y="708"/>
      <point x="380" y="668"/>
      <point x="380" y="616" type="curve" smooth="yes"/>
      <point x="380" y="564"/>
      <point x="416" y="532"/>
      <point x="513" y="508" type="curve"/>
      <point x="281" y="341" type="line"/>
      <point x="115" y="442"/>
      <point x="43" y="553"/>
      <point x="43" y="688" type="curve" smooth="yes"/>
      <point x="43" y="826"/>
      <point x="153" y="936"/>
      <point x="374" y="936" type="curve" smooth="yes"/>
      <point x="668" y="936" type="line"/>
      <point x="629" y="883" type="line"/>
    </contour>
  </outline>
</glyph>
<glyph name="nuktadeva" format="1">
  <unicode hex="093C"/>
  <outline>
    <contour>
      <point x="0" y="0" type="line"/>
      <point x="0" y="0" type="line"/>
      <point x="0" y="20" type="line"/>
      <point x="0" y="20" type="line"/>
    </contour>
  </outline>
</glyph>
<glyph name="avagrahadeva" format="1">
  <advance width="1244"/>
  <unicode hex="093D"/>
  <outline>
    <contour>
      <point x="0" y="0" type="line"/>
      <point x="1244" y="0" type="line"/>
      <point x="1244" y="20" type="line"/>
      <point x="0" y="20" type="line"/>
    </contour>
  </outline>
</glyph>
<glyph name="rvocalicvowelsigndeva" format="1">
  <advance width="0"/>
  <unicode hex="0943"/>
  <outline>
    <contour>
      <point x="-72" y="-556" type="line"/>
      <point x="-188" y="-590"/>
      <point x="-237" y="-597"/>
      <point x="-322" y="-597" type="curve" smooth="yes"/>
      <point x="-551" y="-597"/>
      <point x="-751" y="-476"/>
      <point x="-751" y="-262" type="curve" smooth="yes"/>
      <point x="-751" y="-79"/>
      <point x="-588" y="47"/>
      <point x="-347" y="48" type="curve" smooth="yes"/>
      <point x="-262" y="48"/>
      <point x="-204" y="28"/>
      <point x="-159" y="14" type="curve"/>
      <point x="-167" y="13"/>
      <point x="-174" y="-159"/>
      <point x="-174" y="-168" type="curve"/>
      <point x="-211" y="-175"/>
      <point x="-239" y="-179"/>
      <point x="-271" y="-179" type="curve" smooth="yes"/>
      <point x="-376" y="-179"/>
      <point x="-432" y="-237"/>
      <point x="-430" y="-299" type="curve" smooth="yes"/>
      <point x="-430" y="-345"/>
      <point x="-397" y="-384"/>
      <point x="-316" y="-384" type="curve" smooth="yes"/>
      <point x="-260" y="-383"/>
      <point x="-193" y="-367"/>
      <point x="-108" y="-335" type="curve"/>
    </contour>
    <contour>
      <point x="-419" y="6" type="move" name="_mark0"/>
    </contour>
  </outline>
</glyph>
<glyph name="ecandravowelsigndeva" format="1">
  <advance width="0"/>
  <unicode hex="0945"/>
  <outline>
    <contour>
      <point x="113" y="1584" type="line"/>
      <point x="7" y="1451"/>
      <point x="-174" y="1374"/>
      <point x="-359" y="1374" type="curve" smooth="yes"/>
      <point x="-543" y="1374"/>
      <point x="-700" y="1433"/>
      <point x="-843" y="1562" type="curve"/>
      <point x="-761" y="1765" type="line"/>
      <point x="-630" y="1669"/>
      <point x="-499" y="1604"/>
      <point x="-370" y="1607" type="curve" smooth="yes"/>
      <point x="-221" y="1609"/>
      <point x="-114" y="1665"/>
      <point x="9" y="1768" type="curve"/>
    </contour>
    <contour>
      <point x="46" y="6" type="move" name="x14"/>
    </contour>
    <contour>
      <point x="-419" y="1280" type="move" name="_mark0"/>
    </contour>
  </outline>
</glyph>
<glyph name="uni0953" format="1">
  <advance width="92"/>
  <unicode hex="0953"/>
  <outline>
    <contour>
      <point x="-97" y="1386" type="line"/>
      <point x="-400" y="1386" type="line"/>
      <point x="-404" y="1394"/>
      <point x="-656" y="1795"/>
      <point x="-661" y="1802" type="curve"/>
      <point x="-260" y="1802" type="line"/>
    </contour>
    <contour>
      <point x="-419" y="1280" type="move" name="_mark0"/>
    </contour>
    <contour>
      <point x="46" y="6" type="move" name="x4"/>
    </contour>
  </outline>
</glyph>
<glyph name="rhadeva" format="1">
  <advance width="1186"/>
  <unicode hex="095D"/>
  <outline>
    <component base="ddhadeva"/>
    <component base="nuktadeva" xOffset="1507" yOffset="19"/>
    <contour>
      <point x="725" y="1274" type="move" name="mark0"/>
    </contour>
  </outline>
</glyph>
<glyph name="threedeva" format="1">
  <advance width="1343"/>
  <unicode hex="0969"/>
  <outline>
    <contour>
      <point x="0" y="0" type="line"/>
      <point x="1343" y="0" type="line"/>
      <point x="1343" y="20" type="line"/>
      <point x="0" y="20" type="line"/>
    </contour>
  </outline>
</glyph>
<glyph name="fivedeva" format="1">
  <advance width="1343"/>
  <unicode hex="096B"/>
  <outline>
    <contour>
      <point x="0" y="0" type="line"/>
      <point x="1343" y="0" type="line"/>
      <point x="1343" y="20" type="line"/>
      <point x="0" y="20" type="line"/>
    </contour>
  </outline>
</glyph>
<glyph name="sixdeva" format="1">
  <advance width="1381"/>
  <unicode hex="096C"/>
  <outline>
    <contour>
      <point x="0" y="0" type="line"/>
      <point x="1381" y="0" type="line"/>
      <point x="1381" y="20" type="line"/>
      <point x="0" y="20" type="line"/>
    </contour>
  </outline>
</glyph>
<glyph name="eightdeva" format="1">
  <advance width="1343"/>
  <unicode hex="096E"/>
  <outline>
    <contour>
      <point x="777" y="1317" type="line"/>
      <point x="1043" y="1127" type="line"/>
      <point x="672" y="622" type="line"/>
      <point x="605" y="530"/>
      <point x="578" y="470"/>
      <point x="578" y="397" type="curve" smooth="yes"/>
      <point x="578" y="326"/>
      <point x="635" y="281"/>
      <point x="726" y="281" type="curve" smooth="yes"/>
      <point x="832" y="281"/>
      <point x="964" y="333"/>
      <point x="1150" y="479" type="curve"/>
      <point x="1326" y="220" type="line"/>
      <point x="1159" y="80"/>
      <point x="978" y="0"/>
      <point x="777" y="0" type="curve" smooth="yes"/>
      <point x="500" y="0"/>
      <point x="265" y="218"/>
      <point x="265" y="467" type="curve" smooth="yes"/>
      <point x="265" y="599"/>
      <point x="315" y="696"/>
      <point x="407" y="820" type="curve" smooth="yes"/>
    </contour>
  </outline>
</glyph>
<glyph name="jabardeva" format="1">
  <advance width="1852"/>
  <unicode hex="097C"/>
  <outline>
    <contour>
      <point x="0" y="0" type="line"/>
      <point x="1852" y="0" type="line"/>
      <point x="1852" y="20" type="line"/>
      <point x="0" y="20" type="line"/>
    </contour>
  </outline>
</glyph>
<glyph name="uni200C" format="1">
  <advance width="92"/>
  <unicode hex="200C"/>
  <outline>
    <contour>
      <point x="-50" y="-336" type="line"/>
      <point x="-50" y="1610" type="line"/>
      <point x="143" y="1610" type="line"/>
      <point x="143" y="-336" type="line"/>
    </contour>
  </outline>
</glyph>
<glyph name="endash.deva" format="1">
  <advance width="922"/>
  <unicode hex="2013"/>
  <outline>
    <contour>
      <point x="67" y="373" type="line"/>
      <point x="67" y="621" type="line"/>
      <point x="855" y="621" type="line"/>
      <point x="855" y="373" type="line"/>
    </contour>
  </outline>
</glyph>
<glyph name="quoteleft.deva" format="1">
  <advance width="461"/>
  <unicode hex="2018"/>
  <outline>
    <contour>
      <point x="31" y="789" type="line"/>
      <point x="18" y="809" type="line"/>
      <point x="78" y="1044"/>
      <point x="131" y="1212"/>
      <point x="177" y="1314" type="curve"/>
      <point x="427" y="1314" type="line"/>
      <point x="387" y="1127"/>
      <point x="358" y="952"/>
      <point x="339" y="789" type="curve"/>
    </contour>
  </outline>
</glyph>
<glyph name=".notdef" format="1">
  <advance width="1259"/>
  <outline>
    <contour>
      <point x="192" y="1303" type="line"/>
      <point x="1059" y="1303" type="line"/>
      <point x="1059" y="0" type="line"/>
      <point x="192" y="0" type="line"/>
    </contour>
    <contour>
      <point x="845" y="101" type="line"/>
      <point x="891" y="1116" type="line"/>
      <point x="406" y="1202" type="line"/>
      <point x="360" y="188" type="line"/>
    </contour>
  </outline>
</glyph>
<glyph name="chanuktaraprehalfdeva" format="1">
  <advance width="1756"/>
  <outline>
    <contour>
      <point x="0" y="0" type="line"/>
      <point x="1756" y="0" type="line"/>
      <point x="1756" y="20" type="line"/>
      <point x="0" y="20" type="line"/>
    </contour>
  </outline>
</glyph>
<glyph name="dadhadeva" format="1">
  <advance width="1979"/>
  <outline>
    <contour>
      <point x="0" y="0" type="line"/>
      <point x="1979" y="0" type="line"/>
      <point x="1979" y="20" type="line"/>
      <point x="0" y="20" type="line"/>
    </contour>
  </outline>
</glyph>
<glyph name="damadeva" format="1">
  <advance width="1771"/>
  <outline>
    <contour>
      <point x="0" y="0" type="line"/>
      <point x="1771" y="0" type="line"/>
      <point x="1771" y="20" type="line"/>
      <point x="0" y="20" type="line"/>
    </contour>
  </outline>
</glyph>
<glyph name="dayadeva" format="1">
  <advance width="1779"/>
  <outline>
    <contour>
      <point x="0" y="0" type="line"/>
      <point x="1779" y="0" type="line"/>
      <point x="1779" y="20" type="line"/>
      <point x="0" y="20" type="line"/>
    </contour>
  </outline>
</glyph>
<glyph name="ddayadeva" format="1">
  <advance width="2890"/>
  <outline>
    <contour>
      <point x="0" y="0" type="line"/>
      <point x="2890" y="0" type="line"/>
      <point x="2890" y="20" type="line"/>
      <point x="0" y="20" type="line"/>
    </contour>
  </outline>
</glyph>
<glyph name="dhaprehalfdeva" format="1">
  <advance width="806"/>
  <outline>
    <contour>
      <point x="0" y="0" type="line"/>
      <point x="806" y="0" type="line"/>
      <point x="806" y="20" type="line"/>
      <point x="0" y="20" type="line"/>
    </contour>
  </outline>
</glyph>
<glyph name="hanadeva" format="1">
  <advance width="1747"/>
  <outline>
    <contour>
      <point x="0" y="0" type="line"/>
      <point x="1747" y="0" type="line"/>
      <point x="1747" y="20" type="line"/>
      <point x="0" y="20" type="line"/>
    </contour>
  </outline>
</glyph>
<glyph name="harauudeva" format="1">
  <advance width="1425"/>
  <outline>
    <contour>
      <point x="0" y="0" type="line"/>
      <point x="1425" y="0" type="line"/>
      <point x="1425" y="20" type="line"/>
      <point x="0" y="20" type="line"/>
    </contour>
  </outline>
</glyph>
<glyph name="harvocalicdeva" format="1">
  <advance width="1384"/>
  <outline>
    <contour>
      <point x="0" y="0" type="line"/>
      <point x="1384" y="0" type="line"/>
      <point x="1384" y="20" type="line"/>
      <point x="0" y="20" type="line"/>
    </contour>
  </outline>
</glyph>
<glyph name="japrehalfdeva" format="1">
  <advance width="1050"/>
  <outline>
    <contour>
      <point x="-57" y="1064" type="line"/>
      <point x="-57" y="1293" type="line"/>
      <point x="1216" y="1293" type="line"/>
      <point x="1216" y="1064" type="line"/>
    </contour>
    <contour>
      <point x="703" y="630" type="line"/>
      <point x="698" y="630"/>
      <point x="737" y="702"/>
      <point x="732" y="703" type="curve"/>
      <point x="836" y="622"/>
      <point x="905" y="509"/>
      <point x="905" y="377" type="curve" smooth="yes"/>
      <point x="905" y="184"/>
      <point x="765" y="53"/>
      <point x="551" y="53" type="curve" smooth="yes"/>
      <point x="338" y="53"/>
      <point x="151" y="183"/>
      <point x="-45" y="430" type="curve"/>
      <point x="117" y="663" type="line"/>
      <point x="308" y="435"/>
      <point x="399" y="359"/>
      <point x="484" y="359" type="curve" smooth="yes"/>
      <point x="548" y="359"/>
      <point x="588" y="398"/>
      <point x="588" y="458" type="curve" smooth="yes"/>
      <point x="588" y="533"/>
      <point x="528" y="624"/>
      <point x="359" y="663" type="curve"/>
      <point x="361" y="905" type="line"/>
      <point x="1156" y="905" type="line"/>
      <point x="1156" y="630" type="line"/>
    </contour>
  </outline>
</glyph>
<glyph name="jaraprehalfdeva" format="1">
  <advance width="1516"/>
  <outline>
    <contour>
      <point x="0" y="0" type="line"/>
      <point x="1516" y="0" type="line"/>
      <point x="1516" y="20" type="line"/>
      <point x="0" y="20" type="line"/>
    </contour>
  </outline>
</glyph>
<glyph name="jhanuktadeva" format="1">
  <advance width="1877"/>
  <outline>
    <contour>
      <point x="0" y="0" type="line"/>
      <point x="1877" y="0" type="line"/>
      <point x="1877" y="20" type="line"/>
      <point x="0" y="20" type="line"/>
    </contour>
  </outline>
</glyph>
<glyph name="kharadeva" format="1">
  <advance width="1785"/>
  <outline>
    <contour>
      <point x="0" y="0" type="line"/>
      <point x="1785" y="0" type="line"/>
      <point x="1785" y="20" type="line"/>
      <point x="0" y="20" type="line"/>
    </contour>
  </outline>
</glyph>
<glyph name="maraprehalfdeva" format="1">
  <advance width="1042"/>
  <outline>
    <contour>
      <point x="0" y="0" type="line"/>
      <point x="1042" y="0" type="line"/>
      <point x="1042" y="20" type="line"/>
      <point x="0" y="20" type="line"/>
    </contour>
  </outline>
</glyph>
<glyph name="naprehalfdeva" format="1">
  <advance width="748"/>
  <outline>
    <contour>
      <point x="0" y="0" type="line"/>
      <point x="748" y="0" type="line"/>
      <point x="748" y="20" type="line"/>
      <point x="0" y="20" type="line"/>
    </contour>
  </outline>
</glyph>
<glyph name="ngayadeva" format="1">
  <advance width="3167"/>
  <outline>
    <contour>
      <point x="0" y="0" type="line"/>
      <point x="3167" y="0" type="line"/>
      <point x="3167" y="20" type="line"/>
      <point x="0" y="20" type="line"/>
    </contour>
  </outline>
</glyph>
<glyph name="nyaradeva" format="1">
  <advance width="1609"/>
  <outline>
    <contour>
      <point x="0" y="0" type="line"/>
      <point x="1609" y="0" type="line"/>
      <point x="1609" y="20" type="line"/>
      <point x="0" y="20" type="line"/>
    </contour>
  </outline>
</glyph>
<glyph name="paradeva" format="1">
  <advance width="1256"/>
  <outline>
    <contour>
      <point x="0" y="0" type="line"/>
      <point x="1256" y="0" type="line"/>
      <point x="1256" y="20" type="line"/>
      <point x="0" y="20" type="line"/>
    </contour>
  </outline>
</glyph>
<glyph name="pharadeva" format="1">
  <advance width="1690"/>
  <outline>
    <contour>
      <point x="0" y="0" type="line"/>
      <point x="1690" y="0" type="line"/>
      <point x="1690" y="20" type="line"/>
      <point x="0" y="20" type="line"/>
    </contour>
  </outline>
</glyph>
<glyph name="raprehalfdeva" format="1">
  <advance width="574"/>
  <outline>
    <contour>
      <point x="-29" y="1064" type="line"/>
      <point x="-81" y="1287" type="line"/>
      <point x="733" y="1293" type="line"/>
      <point x="784" y="1070" type="line"/>
    </contour>
    <contour>
      <point x="800" y="426" type="line"/>
      <point x="679" y="378"/>
      <point x="608" y="365"/>
      <point x="464" y="365" type="curve" smooth="yes"/>
      <point x="306" y="365"/>
      <point x="101" y="431"/>
      <point x="-22" y="531" type="curve"/>
      <point x="55" y="760" type="line"/>
      <point x="163" y="701"/>
      <point x="306" y="671"/>
      <point x="405" y="671" type="curve" smooth="yes"/>
      <point x="503" y="671"/>
      <point x="590" y="692"/>
      <point x="703" y="742" type="curve"/>
    </contour>
  </outline>
</glyph>
<glyph name="raudeva" format="1">
  <advance width="1020"/>
  <outline>
    <contour>
      <point x="0" y="0" type="line"/>
      <point x="1020" y="0" type="line"/>
      <point x="1020" y="20" type="line"/>
      <point x="0" y="20" type="line"/>
    </contour>
  </outline>
</glyph>
<glyph name="rauudeva" format="1">
  <advance width="1899"/>
  <outline>
    <contour>
      <point x="0" y="0" type="line"/>
      <point x="1899" y="0" type="line"/>
      <point x="1899" y="20" type="line"/>
      <point x="0" y="20" type="line"/>
    </contour>
  </outline>
</glyph>
<glyph name="rephdeva" format="1">
  <advance width="-1"/>
  <outline>
    <contour>
      <point x="-509" y="1244" type="line"/>
      <point x="-600" y="1351"/>
      <point x="-643" y="1436"/>
      <point x="-643" y="1555" type="curve" smooth="yes"/>
      <point x="-643" y="1695"/>
      <point x="-528" y="1824"/>
      <point x="-324" y="1824" type="curve" smooth="yes"/>
      <point x="-177" y="1824"/>
      <point x="-133" y="1817"/>
      <point x="-53" y="1801" type="curve"/>
      <point x="-64" y="1597" type="line"/>
      <point x="-107" y="1604"/>
      <point x="-133" y="1608"/>
      <point x="-189" y="1608" type="curve" smooth="yes"/>
      <point x="-262" y="1608"/>
      <point x="-313" y="1548"/>
      <point x="-313" y="1463" type="curve" smooth="yes"/>
      <point x="-313" y="1389"/>
      <point x="-281" y="1316"/>
      <point x="-226" y="1244" type="curve"/>
    </contour>
    <contour>
      <point x="-424" y="1282" type="move" name="_mark0"/>
    </contour>
    <contour>
      <point x="49" y="8" type="move" name="x17"/>
    </contour>
  </outline>
</glyph>
<glyph name="rvocalicvowelsignlowdeva" format="1">
  <advance width="92"/>
  <outline>
    <contour>
      <point x="177" y="-719" type="line"/>
      <point x="62" y="-772"/>
      <point x="-57" y="-798"/>
      <point x="-185" y="-798" type="curve" smooth="yes"/>
      <point x="-311" y="-798"/>
      <point x="-416" y="-763"/>
      <point x="-482" y="-703" type="curve"/>
      <point x="-482" y="-693"/>
      <point x="-471" y="-687"/>
      <point x="-462" y="-686" type="curve"/>
      <point x="-536" y="-628"/>
      <point x="-578" y="-560"/>
      <point x="-578" y="-487" type="curve" smooth="yes"/>
      <point x="-586" y="-307"/>
      <point x="-421" y="-194"/>
      <point x="-114" y="-182" type="curve"/>
      <point x="-106" y="-260"/>
      <point x="-88" y="-331"/>
      <point x="-73" y="-402" type="curve"/>
      <point x="-194" y="-409"/>
      <point x="-250" y="-444"/>
      <point x="-248" y="-506" type="curve" smooth="yes"/>
      <point x="-248" y="-559"/>
      <point x="-220" y="-587"/>
      <point x="-165" y="-587" type="curve" smooth="yes"/>
      <point x="-105" y="-587"/>
      <point x="-33" y="-559"/>
      <point x="85" y="-504" type="curve"/>
    </contour>
    <contour>
      <point x="-419" y="6" type="move" name="_mark0"/>
    </contour>
  </outline>
</glyph>
<glyph name="sanuktaprehalfdeva" format="1">
  <advance width="1173"/>
  <outline>
    <contour>
      <point x="0" y="0" type="line"/>
      <point x="1173" y="0" type="line"/>
      <point x="1173" y="20" type="line"/>
      <point x="0" y="20" type="line"/>
    </contour>
  </outline>
</glyph>
<glyph name="saprehalfdeva" format="1">
  <advance width="1006"/>
  <outline>
    <contour>
      <point x="0" y="0" type="line"/>
      <point x="1006" y="0" type="line"/>
      <point x="1006" y="20" type="line"/>
      <point x="0" y="20" type="line"/>
    </contour>
  </outline>
</glyph>
<glyph name="shaprehalfdeva" format="1">
  <advance width="1072"/>
  <outline>
    <contour>
      <point x="0" y="0" type="line"/>
      <point x="1072" y="0" type="line"/>
      <point x="1072" y="20" type="line"/>
      <point x="0" y="20" type="line"/>
    </contour>
  </outline>
</glyph>
<glyph name="shavaprehalfdeva" format="1">
  <advance width="1308"/>
  <outline>
    <contour>
      <point x="0" y="0" type="line"/>
      <point x="1308" y="0" type="line"/>
      <point x="1308" y="20" type="line"/>
      <point x="0" y="20" type="line"/>
    </contour>
  </outline>
</glyph>
<glyph name="taprehalfdeva" format="1">
  <advance width="728"/>
  <outline>
    <contour>
      <point x="0" y="0" type="line"/>
      <point x="728" y="0" type="line"/>
      <point x="728" y="20" type="line"/>
      <point x="0" y="20" type="line"/>
    </contour>
  </outline>
</glyph>
<glyph name="tatadeva" format="1">
  <advance width="1697"/>
  <outline>
    <contour>
      <point x="1157" y="647" type="line"/>
      <point x="1019" y="641" type="line"/>
      <point x="956" y="641"/>
      <point x="886" y="638"/>
      <point x="849" y="631" type="curve"/>
      <point x="800" y="619"/>
      <point x="761" y="505"/>
      <point x="761" y="431" type="curve" smooth="yes"/>
      <point x="761" y="347"/>
      <point x="831" y="259"/>
      <point x="995" y="144" type="curve"/>
      <point x="787" y="-9" type="line"/>
      <point x="513" y="200"/>
      <point x="379" y="363"/>
      <point x="379" y="518" type="curve" smooth="yes"/>
      <point x="373" y="545"/>
      <point x="374" y="573"/>
      <point x="383" y="601" type="curve"/>
      <point x="383" y="613" type="line"/>
      <point x="379" y="610"/>
      <point x="339" y="606"/>
      <point x="339" y="602" type="curve"/>
      <point x="307" y="590"/>
      <point x="278" y="580"/>
      <point x="253" y="571" type="curve"/>
      <point x="128" y="564" type="line"/>
      <point x="124" y="567"/>
      <point x="120" y="797"/>
      <point x="117" y="801" type="curve"/>
      <point x="1100" y="801" type="line"/>
      <point x="1095" y="807"/>
      <point x="1091" y="994"/>
      <point x="1091" y="1002" type="curve"/>
      <point x="1091" y="1007"/>
      <point x="38" y="1012"/>
      <point x="41" y="1015" type="curve"/>
      <point x="15" y="1238" type="line"/>
      <point x="1625" y="1244" type="line"/>
      <point x="1689" y="1021" type="line"/>
      <point x="1497" y="1045" type="line"/>
      <point x="1428" y="74" type="line"/>
      <point x="1068" y="80" type="line"/>
    </contour>
  </outline>
</glyph>
<glyph name="ttattauudeva" format="1">
  <advance width="1276"/>
  <outline>
    <contour>
      <point x="0" y="0" type="line"/>
      <point x="1276" y="0" type="line"/>
      <point x="1276" y="20" type="line"/>
      <point x="0" y="20" type="line"/>
    </contour>
  </outline>
</glyph>
<glyph name="ttatthauudeva" format="1">
  <advance width="1345"/>
  <outline>
    <contour>
      <point x="0" y="0" type="line"/>
      <point x="1345" y="0" type="line"/>
      <point x="1345" y="20" type="line"/>
      <point x="0" y="20" type="line"/>
    </contour>
  </outline>
</glyph>
<glyph name="vaprehalfdeva" format="1">
  <advance width="710"/>
  <outline>
    <contour>
      <point x="0" y="0" type="line"/>
      <point x="710" y="0" type="line"/>
      <point x="710" y="20" type="line"/>
      <point x="0" y="20" type="line"/>
    </contour>
  </outline>
</glyph>
<glyph name="varaprehalfdeva" format="1">
  <advance width="982"/>
  <outline>
    <contour>
      <point x="0" y="0" type="line"/>
      <point x="982" y="0" type="line"/>
      <point x="982" y="20" type="line"/>
      <point x="0" y="20" type="line"/>
    </contour>
  </outline>
</glyph>
<glyph name="yaradeva" format="1">
  <advance width="1314"/>
  <outline>
    <contour>
      <point x="0" y="0" type="line"/>
      <point x="1314" y="0" type="line"/>
      <point x="1314" y="20" type="line"/>
      <point x="0" y="20" type="line"/>
    </contour>
  </outline>
</glyph>
